<svg aria-hidden="true" style="position: absolute; width: 0; height: 0; overflow: hidden;" version="1.1" xmlns="http://www.w3.org/2000/svg" xmlns:xlink="http://www.w3.org/1999/xlink">
<defs>
<symbol id="icon-edit-2" viewBox="0 0 32 32">
<title>edit-2</title>
<path stroke-linejoin="round" stroke-linecap="round" stroke-miterlimit="4" stroke-width="3.6" d="M22.666 4c0.35-0.35 0.766-0.628 1.223-0.817s0.948-0.287 1.443-0.287c0.495 0 0.986 0.098 1.443 0.287s0.873 0.467 1.224 0.817 0.628 0.766 0.817 1.223c0.19 0.458 0.287 0.948 0.287 1.443s-0.098 0.986-0.287 1.443c-0.189 0.458-0.467 0.873-0.817 1.223l-18 18-7.333 2 2-7.333 18-18z"></path>
</symbol>
<symbol id="icon-eye" viewBox="0 0 32 32">
<title>eye</title>
<path stroke-linejoin="round" stroke-linecap="round" stroke-miterlimit="4" stroke-width="2.88" d="M1.333 16c0 0 5.333-10.667 14.667-10.667s14.667 10.667 14.667 10.667c0 0-5.333 10.667-14.667 10.667s-14.667-10.667-14.667-10.667z"></path>
<path stroke-linejoin="round" stroke-linecap="round" stroke-miterlimit="4" stroke-width="2.88" d="M16 20c2.209 0 4-1.791 4-4s-1.791-4-4-4c-2.209 0-4 1.791-4 4s1.791 4 4 4z"></path>
</symbol>
<symbol id="icon-eye-off" viewBox="0 0 32 32">
<title>eye-off</title>
<path stroke-linejoin="round" stroke-linecap="round" stroke-miterlimit="4" stroke-width="2.88" d="M23.92 23.92c-2.279 1.737-5.055 2.7-7.92 2.747-9.333 0-14.667-10.667-14.667-10.667 1.659-3.091 3.959-5.791 6.747-7.92M13.2 5.653c0.918-0.215 1.857-0.322 2.8-0.32 9.333 0 14.667 10.667 14.667 10.667-0.809 1.514-1.775 2.94-2.88 4.253M18.826 18.827c-0.366 0.393-0.808 0.708-1.298 0.927s-1.020 0.336-1.557 0.346-1.071-0.089-1.569-0.291c-0.498-0.201-0.951-0.5-1.33-0.88s-0.679-0.832-0.88-1.33c-0.201-0.498-0.3-1.032-0.29-1.569s0.127-1.067 0.346-1.557 0.534-0.932 0.927-1.298"></path>
<path stroke-linejoin="round" stroke-linecap="round" stroke-miterlimit="4" stroke-width="2.88" d="M1.333 1.333l29.333 29.333"></path>
</symbol>
<symbol id="icon-log-out" viewBox="0 0 32 32">
<title>log-out</title>
<path stroke-linejoin="round" stroke-linecap="round" stroke-miterlimit="4" stroke-width="3" d="M12 28h-5.333c-0.707 0-1.386-0.281-1.886-0.781s-0.781-1.178-0.781-1.886v-18.667c0-0.707 0.281-1.386 0.781-1.886s1.178-0.781 1.886-0.781h5.333"></path>
<path stroke-linejoin="round" stroke-linecap="round" stroke-miterlimit="4" stroke-width="3" d="M21.334 22.667l6.667-6.667-6.667-6.667"></path>
<path stroke-linejoin="round" stroke-linecap="round" stroke-miterlimit="4" stroke-width="3" d="M28 16h-16"></path>
</symbol>
<symbol id="icon-pie-chart-02" viewBox="0 0 32 32">
<title>pie-chart-02</title>
<path fill="none" opacity="0.4" stroke="#323f47" style="stroke: var(--color1, #323f47)" stroke-linejoin="round" stroke-linecap="round" stroke-miterlimit="4" stroke-width="2.6667" d="M22.933 18.667c0.369 0 0.554 0 0.704 0.082 0.123 0.068 0.238 0.195 0.293 0.324 0.067 0.157 0.050 0.324 0.016 0.659-0.174 1.733-0.77 3.404-1.744 4.861-1.172 1.754-2.838 3.121-4.787 3.929s-4.094 1.019-6.163 0.607c-2.069-0.412-3.97-1.427-5.462-2.919s-2.508-3.392-2.919-5.461c-0.412-2.069-0.2-4.214 0.607-6.163s2.175-3.615 3.929-4.787c1.457-0.974 3.128-1.57 4.861-1.744 0.334-0.034 0.502-0.050 0.659 0.016 0.13 0.055 0.257 0.17 0.324 0.293 0.082 0.15 0.082 0.334 0.082 0.704v8.533c0 0.373 0 0.56 0.073 0.703 0.064 0.125 0.166 0.227 0.291 0.291 0.143 0.073 0.329 0.073 0.703 0.073h8.533z"></path>
<path fill="none" opacity="0.4" stroke="#9be1a0" style="stroke: var(--color2, #9be1a0)" stroke-linejoin="round" stroke-linecap="round" stroke-miterlimit="4" stroke-width="2.6667" d="M18.667 3.733c0-0.369 0-0.554 0.082-0.704 0.068-0.123 0.195-0.238 0.324-0.293 0.157-0.067 0.324-0.050 0.659-0.016 2.438 0.245 4.73 1.323 6.478 3.071s2.826 4.040 3.071 6.478c0.033 0.334 0.050 0.502-0.016 0.659-0.055 0.13-0.17 0.257-0.293 0.324-0.15 0.082-0.334 0.082-0.704 0.082h-8.533c-0.373 0-0.56 0-0.703-0.073-0.125-0.064-0.227-0.166-0.291-0.291-0.073-0.143-0.073-0.329-0.073-0.703v-8.533z"></path>
</symbol>
<symbol id="icon-settings" viewBox="0 0 32 32">
<title>settings</title>
<path stroke-linejoin="round" stroke-linecap="round" stroke-miterlimit="4" stroke-width="2.8235" d="M16 19.765c2.079 0 3.765-1.686 3.765-3.765s-1.686-3.765-3.765-3.765c-2.079 0-3.765 1.685-3.765 3.765s1.685 3.765 3.765 3.765z"></path>
<path stroke-linejoin="round" stroke-linecap="round" stroke-miterlimit="4" stroke-width="2.8235" d="M25.286 19.765c-0.167 0.378-0.217 0.798-0.143 1.205s0.268 0.783 0.557 1.078l0.075 0.075c0.233 0.233 0.418 0.51 0.545 0.814s0.191 0.631 0.191 0.961-0.065 0.657-0.191 0.961c-0.126 0.305-0.312 0.581-0.545 0.815s-0.51 0.418-0.815 0.545c-0.305 0.126-0.631 0.191-0.961 0.191s-0.656-0.065-0.961-0.191c-0.305-0.126-0.582-0.312-0.815-0.545l-0.075-0.075c-0.296-0.289-0.671-0.483-1.078-0.557s-0.827-0.024-1.205 0.143c-0.371 0.159-0.688 0.423-0.911 0.76s-0.343 0.731-0.344 1.135v0.213c0 0.666-0.264 1.304-0.735 1.775s-1.109 0.735-1.775 0.735-1.304-0.264-1.775-0.735c-0.471-0.471-0.735-1.109-0.735-1.775v-0.113c-0.010-0.415-0.144-0.818-0.386-1.156s-0.579-0.595-0.969-0.739c-0.379-0.167-0.798-0.217-1.205-0.143s-0.783 0.268-1.079 0.557l-0.075 0.075c-0.233 0.233-0.51 0.418-0.815 0.545s-0.631 0.191-0.961 0.191c-0.33 0-0.656-0.065-0.961-0.191s-0.581-0.311-0.815-0.545c-0.233-0.233-0.418-0.51-0.545-0.815s-0.191-0.631-0.191-0.961c0-0.33 0.065-0.657 0.191-0.961s0.311-0.581 0.545-0.815l0.075-0.075c0.289-0.296 0.483-0.671 0.557-1.078s0.024-0.827-0.143-1.205c-0.159-0.371-0.423-0.688-0.76-0.911s-0.731-0.343-1.135-0.344h-0.213c-0.666 0-1.304-0.264-1.775-0.735s-0.735-1.109-0.735-1.775c0-0.666 0.264-1.304 0.735-1.775s1.109-0.735 1.775-0.735h0.113c0.415-0.010 0.818-0.144 1.156-0.386s0.595-0.579 0.739-0.969c0.167-0.379 0.217-0.798 0.143-1.205s-0.268-0.783-0.557-1.078l-0.075-0.075c-0.233-0.233-0.418-0.51-0.545-0.815s-0.191-0.631-0.191-0.961c0-0.33 0.065-0.656 0.191-0.961s0.311-0.582 0.545-0.815c0.233-0.233 0.51-0.418 0.815-0.545s0.631-0.191 0.961-0.191c0.33 0 0.656 0.065 0.961 0.191s0.582 0.311 0.815 0.545l0.075 0.075c0.296 0.289 0.671 0.483 1.078 0.557s0.827 0.024 1.205-0.143h0.1c0.371-0.159 0.688-0.423 0.911-0.76s0.343-0.731 0.344-1.135v-0.213c0-0.666 0.264-1.304 0.735-1.775s1.109-0.735 1.775-0.735c0.666 0 1.304 0.264 1.775 0.735s0.735 1.109 0.735 1.775v0.113c0.002 0.404 0.121 0.798 0.344 1.135s0.54 0.601 0.911 0.76c0.378 0.167 0.798 0.217 1.205 0.143s0.783-0.268 1.079-0.557l0.075-0.075c0.233-0.233 0.51-0.418 0.814-0.545s0.631-0.191 0.961-0.191 0.656 0.065 0.961 0.191c0.305 0.126 0.581 0.311 0.814 0.545s0.419 0.51 0.545 0.815 0.191 0.631 0.191 0.961c0 0.33-0.065 0.656-0.191 0.961s-0.312 0.581-0.545 0.815l-0.075 0.075c-0.289 0.296-0.483 0.671-0.557 1.078s-0.024 0.827 0.143 1.205v0.1c0.159 0.371 0.423 0.688 0.76 0.911s0.731 0.343 1.135 0.344h0.213c0.666 0 1.304 0.264 1.775 0.735s0.735 1.109 0.735 1.775-0.264 1.304-0.735 1.775c-0.471 0.471-1.109 0.735-1.775 0.735h-0.113c-0.404 0.002-0.798 0.121-1.135 0.344s-0.601 0.539-0.76 0.911z"></path>
</symbol>
<symbol id="icon-trash-04" viewBox="0 0 32 32">
<title>trash-04</title>
<path stroke-linejoin="round" stroke-linecap="round" stroke-miterlimit="4" stroke-width="3" d="M12 4h8"></path>
<path stroke-linejoin="round" stroke-linecap="round" stroke-miterlimit="4" stroke-width="3.6" d="M4 8h24M25.333 8l-0.935 14.026c-0.14 2.104-0.21 3.156-0.665 3.954-0.4 0.702-1.004 1.267-1.731 1.62-0.826 0.4-1.881 0.4-3.99 0.4h-4.025c-2.109 0-3.163 0-3.99-0.4-0.727-0.353-1.331-0.917-1.731-1.62-0.455-0.798-0.525-1.85-0.665-3.954l-0.935-14.026"></path>
</symbol>
<symbol id="icon-upload" viewBox="0 0 32 32">
<title>upload</title>
<path stroke-linejoin="round" stroke-linecap="round" stroke-miterlimit="4" stroke-width="2.7429" d="M27.429 19.81v5.079c0 0.674-0.268 1.32-0.744 1.796s-1.122 0.744-1.796 0.744h-17.778c-0.674 0-1.32-0.268-1.796-0.744s-0.744-1.122-0.744-1.796v-5.079"></path>
<path stroke-linejoin="round" stroke-linecap="round" stroke-miterlimit="4" stroke-width="2.7429" d="M22.349 10.921l-6.349-6.349-6.349 6.349"></path>
<path stroke-linejoin="round" stroke-linecap="round" stroke-miterlimit="4" stroke-width="2.7429" d="M16 4.571v15.238"></path>
</symbol>
<symbol id="icon-x" viewBox="0 0 32 32">
<title>x</title>
<path stroke-linejoin="round" stroke-linecap="round" stroke-miterlimit="4" stroke-width="3.4286" d="M24 8l-16 16"></path>
<path stroke-linejoin="round" stroke-linecap="round" stroke-miterlimit="4" stroke-width="3.4286" d="M8 8l16 16"></path>
</symbol>
</defs>
</svg>
