<svg xmlns="http://www.w3.org/2000/svg" aria-hidden="true"
    style="position:absolute;width:0;height:0;overflow:hidden">
    <defs>
        <symbol id="icon-edit-2" viewBox="0 0 32 32">
            <path stroke-linecap="round" stroke-linejoin="round" stroke-width="3.6"
                d="M22.666 4a3.766 3.766 0 0 1 4.109-.817 3.781 3.781 0 0 1 2.041 2.04 3.764 3.764 0 0 1 0 2.886 3.756 3.756 0 0 1-.817 1.223l-18 18-7.333 2 2-7.333 18-18z" />
        </symbol>

        <symbol id="icon-plus" viewBox="0 0 32 32">
            <path stroke-linecap="round" stroke-linejoin="round"
                stroke-width="2.667" d="M16 6.667v18.667M6.667 16h18.667" />
        </symbol>


        <symbol id="icon-chevron-down" viewBox="0 0 32 32">
            <path stroke-linecap="round" stroke-linejoin="round"
                stroke-width="3.2" d="m8 12 8 8 8-8" />

        </symbol>
        <symbol id="icon-chevron-left" viewBox="0 0 32 32">
            <path stroke-linecap="round" stroke-linejoin="round" stroke-width="3.556"
                d="m20 24-8-8 8-8" />
        </symbol>


        <symbol id="icon-chevron-right" viewBox="0 0 32 32">
            <path stroke-linecap="round" stroke-linejoin="round" stroke-width="3.556"
                d="m12 24 8-8-8-8" />
        </symbol>


        <symbol id="icon-chevron-up" viewBox="0 0 32 32">
            <path stroke-linecap="round" stroke-linejoin="round"
                stroke-width="3.2" d="m8 20 8-8 8 8" />
        </symbol>

        <symbol id="icon-upload" viewBox="0 0 32 32">
            <path stroke-linecap="round" stroke-linejoin="round" stroke-width="2.743"
                d="M27.429 19.81v5.079a2.54 2.54 0 0 1-2.54 2.54H7.111a2.54 2.54 0 0 1-2.54-2.54V19.81M22.349 10.921 16 4.572l-6.349 6.349M16 4.571v15.238" />
        </symbol>
        <symbol id="icon-exclamation-mark" viewBox="0 0 32 32">
            <path fill="#9be1a0" style="fill: var(--color1, #9be1a0)"
                d="M13.474 18.545c0.121 1.266 0.328 2.206 0.611 2.826 0.287 0.619 0.796 0.927 1.532 0.927 0.137 0 0.261-0.021 0.383-0.047 0.125 0.025 0.248 0.047 0.386 0.047 0.733 0 1.244-0.309 1.53-0.927 0.285-0.62 0.487-1.561 0.612-2.826l0.653-9.771c0.121-1.905 0.183-3.271 0.183-4.101 0-1.129-0.295-2.010-0.886-2.643-0.593-0.632-1.372-0.948-2.337-0.948-0.052 0-0.090 0.012-0.14 0.014-0.048-0.002-0.088-0.014-0.137-0.014-0.967 0-1.745 0.316-2.337 0.948s-0.888 1.515-0.888 2.643c0 0.83 0.060 2.196 0.184 4.1l0.652 9.77zM16.025 25.87c-0.937 0-1.733 0.295-2.394 0.887s-0.992 1.309-0.992 2.153c0 0.951 0.335 1.7 1 2.244 0.668 0.544 1.447 0.816 2.338 0.816 0.906 0 1.697-0.268 2.373-0.805 0.675-0.536 1.012-1.289 1.012-2.254 0-0.843-0.323-1.561-0.969-2.153s-1.436-0.887-2.37-0.887z"></path>
        </symbol>
        <symbol id="icon-x" viewBox="0 0 32 32">
            <path stroke-linecap="round" stroke-linejoin="round" stroke-width="3.429"
                d="M24 8 8 24M8 8l16 16" />
        </symbol>


<symbol id="icon-eye" viewBox="0 0 32 32">
    <path stroke-linecap="round" stroke-linejoin="round" stroke-width="2.88"
        d="M1.333 16S6.666 5.333 16 5.333 30.667 16 30.667 16 25.334 26.667 16 26.667 1.333 16 1.333 16z" />
    <path stroke-linecap="round" stroke-linejoin="round" stroke-width="2.88"
        d="M16 20a4 4 0 1 0 0-8 4 4 0 0 0 0 8z" />
</symbol>

<symbol id="icon-eye-off" viewBox="0 0 32 32">
    <path stroke-linecap="round" stroke-linejoin="round" stroke-width="2.88"
        d="M23.92 23.92A13.43 13.43 0 0 1 16 26.667C6.667 26.667 1.333 16 1.333 16A24.605 24.605 0 0 1 8.08 8.08m5.12-2.427a12.161 12.161 0 0 1 2.8-.32C25.333 5.333 30.667 16 30.667 16a24.646 24.646 0 0 1-2.88 4.253m-8.961-1.426a4.01 4.01 0 0 1-2.855 1.273 3.978 3.978 0 0 1-1.569-.291 3.984 3.984 0 0 1-2.21-2.21 3.995 3.995 0 0 1 .983-4.424M1.333 1.333l29.333 29.333" />
</symbol>

<symbol id="icon-log-out" viewBox="0 0 32 32">
    <path stroke-linecap="round" stroke-linejoin="round" stroke-width="3"
        d="M12 28H6.667A2.668 2.668 0 0 1 4 25.333V6.666a2.668 2.668 0 0 1 2.667-2.667H12M21.334 22.667 28.001 16l-6.667-6.667M28 16H12" />
</symbol>

<symbol id="icon-pie-chart-02" viewBox="0 0 32 32">
    <path stroke-linecap="round" stroke-linejoin="round"
        stroke-width="2.667"
        d="M22.933 18.667c.369 0 .554 0 .704.082a.713.713 0 0 1 .293.324c.067.157.05.324.016.659a10.665 10.665 0 0 1-12.694 9.397 10.67 10.67 0 0 1-8.381-8.38 10.666 10.666 0 0 1 9.397-12.694c.334-.034.502-.05.659.016.13.055.257.17.324.293.082.15.082.334.082.704v8.533c0 .373 0 .56.073.703a.67.67 0 0 0 .291.291c.143.073.329.073.703.073h8.533z" />
    <path stroke="#9be1a0" stroke-linecap="round" stroke-linejoin="round"
        stroke-width="2.667"
        d="M18.667 3.733c0-.369 0-.554.082-.704a.713.713 0 0 1 .324-.293c.157-.067.324-.05.659-.016a10.67 10.67 0 0 1 9.549 9.549c.033.334.05.502-.016.659a.704.704 0 0 1-.293.324c-.15.082-.334.082-.704.082h-8.533c-.373 0-.56 0-.703-.073a.67.67 0 0 1-.291-.291c-.073-.143-.073-.329-.073-.703V3.734z" />
</symbol>

<symbol id="icon-settings" viewBox="0 0 32 32">
    <path stroke-linecap="round" stroke-linejoin="round" stroke-width="2.824"
        d="M16 19.765a3.765 3.765 0 1 0 0-7.53 3.765 3.765 0 0 0 0 7.53z" />
    <path stroke-linecap="round" stroke-linejoin="round" stroke-width="2.824"
        d="M25.286 19.765a2.068 2.068 0 0 0 .414 2.283l.075.075a2.493 2.493 0 0 1 .736 1.775 2.511 2.511 0 0 1-4.288 1.776l-.075-.075a2.074 2.074 0 0 0-2.283-.414 2.07 2.07 0 0 0-1.255 1.895v.213a2.509 2.509 0 1 1-5.02 0v-.113a2.071 2.071 0 0 0-1.355-1.895 2.069 2.069 0 0 0-2.284.414l-.075.075a2.525 2.525 0 0 1-1.776.736 2.515 2.515 0 0 1-2.321-1.551 2.511 2.511 0 0 1 .545-2.737l.075-.075a2.074 2.074 0 0 0 .414-2.283 2.07 2.07 0 0 0-1.895-1.255h-.213a2.509 2.509 0 1 1 0-5.02h.113a2.071 2.071 0 0 0 1.895-1.355 2.069 2.069 0 0 0-.414-2.283l-.075-.075A2.525 2.525 0 0 1 5.488 8.1a2.515 2.515 0 0 1 1.551-2.321 2.515 2.515 0 0 1 2.737.545l.075.075a2.074 2.074 0 0 0 2.283.414h.1a2.07 2.07 0 0 0 1.255-1.895v-.213a2.509 2.509 0 1 1 5.02 0v.113a2.074 2.074 0 0 0 1.255 1.895 2.068 2.068 0 0 0 2.284-.414l.075-.075a2.493 2.493 0 0 1 1.775-.736 2.515 2.515 0 0 1 2.32 1.551 2.515 2.515 0 0 1-.545 2.737l-.075.075a2.074 2.074 0 0 0-.414 2.283v.1a2.07 2.07 0 0 0 1.895 1.255h.213a2.509 2.509 0 1 1 0 5.02h-.113a2.074 2.074 0 0 0-1.895 1.255z" />
</symbol>

<symbol id="icon-trash-04" viewBox="0 0 32 32">
    <path stroke-linecap="round" stroke-linejoin="round" stroke-width="3" d="M12 4h8" />
    <path stroke-linecap="round" stroke-linejoin="round" stroke-width="3.6"
        d="M4 8h24m-2.667 0-.935 14.026c-.14 2.104-.21 3.156-.665 3.954a4.007 4.007 0 0 1-1.731 1.62c-.826.4-1.881.4-3.99.4h-4.025c-2.109 0-3.163 0-3.99-.4a4.001 4.001 0 0 1-1.731-1.62c-.455-.798-.525-1.85-.665-3.954L6.666 8" />
</symbol>

<symbol id="icon-water-glass" viewBox="0 0 32 32">
    <path
        d="M27.568 4.87c-0.097-0.321-0.26-0.616-0.479-0.868s-0.488-0.452-0.79-0.589c-0.3-0.142-0.627-0.214-0.958-0.21h-18.63c-0.331-0.019-0.661 0.049-0.958 0.197-0.308 0.139-0.582 0.345-0.803 0.604-0.219 0.251-0.382 0.546-0.479 0.866-0.1 0.318-0.131 0.654-0.091 0.984l2.123 18.377c0.142 1.258 0.738 2.415 1.67 3.255 0.911 0.839 2.096 1.307 3.327 1.313h9.062c1.235-0.005 2.424-0.473 3.34-1.313 0.92-0.848 1.508-2.004 1.657-3.255l1.152-10.331v-0.157l0.893-7.876c0.050-0.332 0.037-0.671-0.039-0.998zM14.492 25.020h-1.295c-0.839-0.047-1.637-0.38-2.266-0.945-0.626-0.572-1.038-1.347-1.165-2.192l-0.311-2.258c-0.040-0.344 0.055-0.69 0.264-0.965s0.515-0.455 0.854-0.503c0.338-0.048 0.682 0.040 0.957 0.246s0.46 0.512 0.515 0.854l0.311 2.232c0.035 0.244 0.154 0.467 0.337 0.63 0.181 0.168 0.415 0.266 0.66 0.276h1.295c0.343 0 0.673 0.138 0.915 0.384s0.379 0.58 0.379 0.928-0.136 0.682-0.379 0.928c-0.243 0.246-0.572 0.384-0.915 0.384h-0.155zM24.849 12.904c-2.732 0.538-5.062 0.643-7.535-1.313-3.068-2.455-6.784-1.667-10.357-0.381l-0.647-5.566c-0.013-0.056-0.013-0.114 0-0.171 0.018-0.055 0.049-0.105 0.091-0.144 0.031-0.048 0.076-0.085 0.129-0.105 0.051-0.015 0.105-0.015 0.155 0h18.798c0.049 0.028 0.092 0.063 0.13 0.105 0.039 0.039 0.065 0.091 0.078 0.144 0.020 0.060 0.020 0.124 0 0.184l-0.842 7.246z"></path>
</symbol>


<symbol id="icon-eye" viewBox="0 0 32 32">
    <path stroke-linecap="round" stroke-linejoin="round" stroke-width="2.88"
        d="M1.333 16S6.666 5.333 16 5.333 30.667 16 30.667 16 25.334 26.667 16 26.667 1.333 16 1.333 16z" />
    <path stroke-linecap="round" stroke-linejoin="round" stroke-width="2.88"
        d="M16 20a4 4 0 1 0 0-8 4 4 0 0 0 0 8z" />
</symbol>

</defs>
</svg>